<?xml version="1.0" encoding="UTF-8"?>
<svg id="_レイヤー_2" data-name="レイヤー_2" xmlns="http://www.w3.org/2000/svg" viewBox="0 0 340.02 432.11">
  <g id="mark">
    <g>
      <path d="M263.14,313.15h24.17c14.07,0,25.52-11.45,25.52-25.52,0-6.31-2.31-12.09-6.11-16.55,21.51-29.1,33.3-64.73,33.3-101.07C340.02,76.27,263.75,0,170.01,0S0,76.27,0,170.01c0,36.4,11.77,71.94,33.3,101.06-3.81,4.46-6.12,10.24-6.12,16.55,0,14.07,11.45,25.52,25.52,25.52h24.16c-17.01,13.95-22.76,29.31-21.78,42.52,1.77,23.79,25.85,41.05,53.31,53.31,5.61,2.51,12.43,5.26,19.01,7.92,13.73,5.54,26.69,10.77,31.83,14.76.18.14.79.59,1.07.42.59-.36,1.9-3.05,2.56-7.36,1.09-7.14,7.3-32.45-36.1-45.12-61.68-15.17-65.4-39.28-35.44-60.87-1.56,8.64-3.8,16.4-6.79,21.53-1.29,2.21,1.03,3.06,3.91,2.65,12.87-1.84,21.58-8.1,25.74-14.14,1.57-2.28,1.34-.21,1.37,2.65.13,13.39-3.06,27.06-5.98,33.26-1.01,2.14,1.33,3.28,3.49,2.87,16.6-3.13,26.05-14.18,31.45-23.35,1.53-2.6,2.28-1.78,2.78.99,5.75,35.15,20.46,44.51,22.72,44.54h0s0,0,0,0c0,0,0,0,0,0h0c2.26-.02,16.97-9.39,22.72-44.54.5-2.77,1.25-3.59,2.78-.99,5.39,9.18,14.85,20.22,31.45,23.35,2.16.41,4.5-.72,3.49-2.87-2.92-6.21-6.11-19.87-5.98-33.26.03-2.86-.2-4.93,1.37-2.65,4.15,6.03,12.87,12.3,25.74,14.14,2.88.41,5.2-.44,3.91-2.65-2.99-5.14-5.23-12.89-6.79-21.53,29.96,21.6,26.24,45.71-35.44,60.87-43.4,12.67-37.19,37.98-36.1,45.12.66,4.31,1.96,6.99,2.56,7.36.27.18.89-.28,1.07-.42,5.14-3.99,18.11-9.22,31.83-14.76,6.59-2.66,13.4-5.41,19.01-7.92,27.45-12.25,51.54-29.52,53.31-53.31.98-13.2-4.77-28.57-21.78-42.52ZM170.01,13.32c86.4,0,156.69,70.29,156.69,156.69,0,34.16-10.69,66.37-30.96,93.52-2.64-.93-5.47-1.44-8.43-1.44h-38.82l5.7-61.69h33.42c10.31,0,15.61-12.34,8.52-19.82l-119.94-126.55c-3.33-3.52-8.93-3.52-12.27,0l-120.04,126.55c-7.1,7.48-1.79,19.82,8.52,19.82h33.41l5.7,61.69h-38.8c-2.95,0-5.78.51-8.42,1.43-20.02-26.91-30.97-59.82-30.97-93.52C13.32,83.61,83.61,13.32,170.01,13.32ZM127.77,201.81c.15-.55.47-1.03.9-1.4h16.1c-.86,2.82-1.33,5.83-1.33,8.95,0,15.86,11.89,28.71,26.55,28.71s26.55-12.85,26.55-28.71c0-3.13-.47-6.14-1.33-8.95h16.14c.4.34.69.77.83,1.27.93,3.46,1.4,7.03,1.4,10.69,0,23.27-19.56,42.2-43.6,42.2s-43.6-18.93-43.6-42.2c0-3.61.46-7.14,1.37-10.56ZM40.51,287.62c0-6.73,5.48-12.2,12.2-12.2h234.6c6.73,0,12.2,5.48,12.2,12.2s-5.48,12.2-12.2,12.2H52.71c-6.73,0-12.2-5.48-12.2-12.2Z"/>
      <path d="M48.58,128.19c.87.38,1.78.56,2.67.56,2.56,0,5.01-1.49,6.1-3.99.71-1.63,1.47-3.26,2.26-4.85,1.63-3.3.27-7.29-3.03-8.92-3.3-1.63-7.29-.27-8.92,3.03-.87,1.77-1.72,3.59-2.51,5.4-1.48,3.37.06,7.3,3.43,8.77Z"/>
      <path d="M61.2,102.2c1.11.72,2.36,1.06,3.59,1.06,2.19,0,4.34-1.08,5.61-3.06,12.48-19.44,30.17-34.77,51.14-44.31,3.35-1.52,4.83-5.47,3.3-8.82-1.52-3.35-5.47-4.83-8.82-3.3-23.31,10.61-42.96,27.64-56.83,49.24-1.99,3.1-1.09,7.22,2.01,9.2Z"/>
    </g>
  </g>
</svg>