<?xml version="1.0" encoding="UTF-8"?>
<svg id="_レイヤー_2" data-name="レイヤー_2" xmlns="http://www.w3.org/2000/svg" viewBox="0 0 726.4 178.65">
  <g id="type">
    <g>
      <path d="M100.33,166.07l-1.08-.07v-30.49c0-9.55-3.71-17.94-11.03-25.01,7.32-7.03,11.03-15.52,11.03-25.24v-45.05c0-10.67-4.46-19.83-13.27-27.25-8.68-7.3-19.34-10.99-31.69-10.99H5.34c-2.89,0-5.29,2.29-5.34,5.18-.04,2.94,2.33,5.34,5.26,5.34l1.41.07-.07,153.51h-1.26c-2.88,0-5.29,2.29-5.34,5.18-.05,2.94,2.33,5.34,5.26,5.34h32.95c2.89,0,5.29-2.29,5.34-5.18.04-2.94-2.33-5.34-5.26-5.34l-1.41-.07.07-42.28c0-.12.1-.22.22-.22h17.13c4.06,0,7.43,1.22,10.31,3.71,2.77,2.41,4.11,5.12,4.11,8.29l-.07,30.57h-1.26c-2.88,0-5.29,2.29-5.34,5.18-.05,2.94,2.33,5.34,5.26,5.34h32.95c2.89,0,5.29-2.29,5.34-5.18.04-2.94-2.33-5.34-5.26-5.34ZM68.72,85.26c0,3.34-1.33,6.09-4.08,8.4-2.88,2.43-6.26,3.6-10.34,3.6l-17.21-.07c-.12,0-.21-.1-.21-.22l.07-66.62c0-.12.1-.22.22-.22h17.13c4.06,0,7.43,1.22,10.31,3.71,2.77,2.41,4.11,5.12,4.11,8.29v43.11Z"/>
      <path d="M318.03,12.48c2.9,0,5.26-2.36,5.26-5.26s-2.36-5.26-5.26-5.26h-33.55c-2.9,0-5.26,2.36-5.26,5.26s2.36,5.26,5.26,5.26l1.08.07-.07,153.51h-1.01c-2.9,0-5.26,2.36-5.26,5.26s2.36,5.26,5.26,5.26h33.55c2.9,0,5.26-2.36,5.26-5.26s-2.36-5.26-5.26-5.26l-1.08-.07.07-153.51h1Z"/>
      <path d="M594.83,52.9l-1.75-.07v-14.48c0-10.67-4.46-19.83-13.27-27.25-8.67-7.3-19.34-10.99-31.69-10.99s-22.73,3.7-31.51,10.98c-8.92,7.41-13.45,16.58-13.45,27.26v36.32c0,4.57.83,8.91,2.46,12.91,3.14,7.69,9.4,13.86,17.63,17.37l35.82,15.29c2.56,2.26,3.8,4.93,3.8,8.16v9.26c0,3.15-1.39,5.86-4.25,8.26-2.99,2.52-6.43,3.74-10.51,3.74s-7.44-1.22-10.31-3.72c-2.77-2.4-4.11-5.12-4.11-8.29l.07-8.41h1c2.9,0,5.26-2.36,5.26-5.26s-2.36-5.26-5.26-5.26h-32.69c-2.9,0-5.26,2.36-5.26,5.26s2.36,5.26,5.26,5.26l1.08.07v11.1c0,10.49,4.52,19.6,13.43,27.1,8.78,7.39,19.39,11.13,31.52,11.13s23.03-3.75,31.7-11.15c8.79-7.5,13.25-16.62,13.25-27.09v-12.01c0-5.33-1.13-10.34-3.35-14.9h0c-3.28-6.72-9.2-12.17-16.65-15.35l-35.9-15.33c-2.33-2.08-3.47-4.76-3.47-8.16v-33.59c0-3.17,1.35-5.88,4.11-8.29,2.88-2.5,6.25-3.72,10.31-3.72,4.28,0,7.77,1.22,10.64,3.71,2.77,2.41,4.11,5.12,4.11,8.29l-.07,11.82h-1.01c-2.9,0-5.26,2.36-5.26,5.26s2.36,5.26,5.26,5.26h33.03c2.9,0,5.26-2.36,5.26-5.26s-2.36-5.26-5.26-5.26Z"/>
      <path d="M227.17,2.07h-53.48c-2.98,0-5.4,2.42-5.4,5.4v21.32c0,2.98,2.42,5.4,5.4,5.4h.72c2.98,0,5.4-2.42,5.4-5.4,0-.12.1-.22.22-.22h22.13c.12,0,.22.1.22.22v24.91c0,.12-.1.22-.22.22h-54.22c-2.98,0-5.4,2.42-5.4,5.4v79.15c0,.4.65,40.19,45.08,40.19s44.95-39.8,44.95-40.2V7.47c0-2.98-2.42-5.4-5.4-5.4ZM202.36,137.55c-.18,2.02-1.72,12.11-14.75,12.11s-14.68-10.1-14.88-12.13v-57.12c0-.12.1-.22.22-.22h29.2c.12,0,.22.1.22.22v57.15Z"/>
      <path d="M369.98,140.41c0,10.49,4.52,19.61,13.43,27.1,8.78,7.39,19.39,11.13,31.52,11.13s23.03-3.75,31.7-11.15c8.79-7.5,13.25-16.62,13.25-27.09V2.18c0-.12-.1-.22-.22-.22h-89.48c-.12,0-.22.1-.22.22v138.23ZM400.39,30.14h28.74c.12,0,.22.1.22.22v107.3c0,3.17-1.35,5.88-4.11,8.29-2.87,2.5-6.24,3.71-10.31,3.71s-7.52-1.22-10.51-3.74c-2.86-2.4-4.25-5.1-4.25-8.26V30.36c0-.12.1-.22.22-.22Z"/>
      <path d="M641.76,176.58h53.48c2.98,0,5.4-2.42,5.4-5.4v-21.32c0-2.98-2.42-5.4-5.4-5.4h-.72c-2.98,0-5.4,2.42-5.4,5.4,0,.12-.1.22-.22.22h-22.13c-.12,0-.22-.1-.22-.22v-24.91c0-.12.1-.22.22-.22h54.22c2.98,0,5.4-2.42,5.4-5.4V40.19c0-.4-.65-40.19-45.08-40.19s-44.95,39.8-44.95,40.2v130.98c0,2.98,2.42,5.4,5.4,5.4ZM666.56,41.1c.18-2.02,1.72-12.11,14.75-12.11s14.68,10.1,14.88,12.13v57.12c0,.12-.1.22-.22.22h-29.2c-.12,0-.22-.1-.22-.22v-57.15Z"/>
    </g>
  </g>
</svg>